<svg width="300" height="300" viewBox="0 0 300 300" fill="none" xmlns="http://www.w3.org/2000/svg">
<rect width="300" height="300" />
<path d="M300 150C300 232.843 232.843 300 150 300C67.1573 300 0 232.843 0 150C0 67.1573 67.1573 0 150 0C232.843 0 300 67.1573 300 150ZM30.1292 150C30.1292 216.203 83.7972 269.871 150 269.871C216.203 269.871 269.871 216.203 269.871 150C269.871 83.7972 216.203 30.1292 150 30.1292C83.7972 30.1292 30.1292 83.7972 30.1292 150Z" fill="#BE0A0A"/>
<rect x="47.616" y="68.2789" width="37" height="254" transform="rotate(-45 47.616 68.2789)" fill="#BE0A0A"/>
</svg>
